<?xml version="1.0" encoding="iso-8859-1"?>
<!-- Generator: Adobe Illustrator 19.0.0, SVG Export Plug-In . SVG Version: 6.00 Build 0)  -->
<svg version="1.1" id="Capa_1" xmlns="http://www.w3.org/2000/svg" xmlns:xlink="http://www.w3.org/1999/xlink" x="0px" y="0px"
	 viewBox="0 0 480 480" style="enable-background:new 0 0 480 480;" xml:space="preserve">
<g>
	<g>
		<path d="M312,400v-72c-0.02-6.893-3.022-13.439-8.232-17.952l-12.8-62.128c-3.891-18.561-20.236-31.87-39.2-31.92H68.208
			c-18.964,0.05-35.309,13.359-39.2,31.92l-12.8,62.128C11.007,314.565,8.014,321.111,8,328v72c-4.418,0-8,3.582-8,8v32
			c0,4.418,3.582,8,8,8v24c0,4.418,3.582,8,8,8h40c4.418,0,8-3.582,8-8v-24h192v24c0,4.418,3.582,8,8,8h40c4.418,0,8-3.582,8-8v-24
			c4.418,0,8-3.582,8-8v-32C320,403.582,316.418,400,312,400z M44.704,251.2c2.311-11.151,12.116-19.161,23.504-19.2h183.584
			c11.388,0.039,21.193,8.049,23.504,19.2l10.888,52.8H33.816L44.704,251.2z M24,328c0-4.418,3.582-8,8-8h256c4.418,0,8,3.582,8,8
			v72H24V328z M48,464H24v-16h24V464z M296,464h-24v-16h24V464z M304,432H16v-16h288V432z"/>
	</g>
</g>
<g>
	<g>
		<path d="M56,328c-13.255,0-24,10.745-24,24s10.745,24,24,24s24-10.745,24-24S69.255,328,56,328z M56,360c-4.418,0-8-3.582-8-8
			s3.582-8,8-8s8,3.582,8,8S60.418,360,56,360z"/>
	</g>
</g>
<g>
	<g>
		<path d="M264,328c-13.255,0-24,10.745-24,24s10.745,24,24,24s24-10.745,24-24S277.255,328,264,328z M264,360c-4.418,0-8-3.582-8-8
			s3.582-8,8-8s8,3.582,8,8S268.418,360,264,360z"/>
	</g>
</g>
<g>
	<g>
		<path d="M216,328H104c-4.418,0-8,3.582-8,8s3.582,8,8,8h112c4.418,0,8-3.582,8-8S220.418,328,216,328z"/>
	</g>
</g>
<g>
	<g>
		<path d="M216,352H104c-4.418,0-8,3.582-8,8s3.582,8,8,8h112c4.418,0,8-3.582,8-8S220.418,352,216,352z"/>
	</g>
</g>
<g>
	<g>
		<path d="M216,376H104c-4.418,0-8,3.582-8,8s3.582,8,8,8h112c4.418,0,8-3.582,8-8S220.418,376,216,376z"/>
	</g>
</g>
<g>
	<g>
		<path d="M472,0H296c-4.418,0-8,3.582-8,8v176c0,4.418,3.582,8,8,8h64v280c0,4.418,3.582,8,8,8h32c4.418,0,8-3.582,8-8V192h64
			c4.418,0,8-3.582,8-8V8C480,3.582,476.418,0,472,0z M392,464h-16V192h16V464z M464,176H304V16h160V176z"/>
	</g>
</g>
<g>
	<g>
		<path d="M414.937,41.793c-0.153-0.157-0.308-0.312-0.465-0.465c-6.085-6.005-14.299-9.359-22.848-9.328H360c-4.418,0-8,3.582-8,8
			v112c0,4.418,3.582,8,8,8s8-3.582,8-8V96h23.624c8.549,0.031,16.763-3.323,22.848-9.328
			C426.993,74.407,427.202,54.314,414.937,41.793z M403.535,74.977c-0.094,0.097-0.19,0.193-0.287,0.287
			c-3.111,3.031-7.281,4.729-11.624,4.736H368V48h23.624c4.343,0.007,8.513,1.706,11.624,4.736
			C409.469,58.798,409.597,68.756,403.535,74.977z"/>
	</g>
</g>
<g>
</g>
<g>
</g>
<g>
</g>
<g>
</g>
<g>
</g>
<g>
</g>
<g>
</g>
<g>
</g>
<g>
</g>
<g>
</g>
<g>
</g>
<g>
</g>
<g>
</g>
<g>
</g>
<g>
</g>
</svg>
